<?xml version="1.0" encoding="UTF-8"?>
<svg xmlns="http://www.w3.org/2000/svg" xmlns:xlink="http://www.w3.org/1999/xlink" width="30pt" height="30pt" viewBox="0 0 30 30" version="1.1">
<g id="surface1">
<path style=" stroke:none;fill-rule:nonzero;fill:rgb(100%,85.882353%,4.705882%);fill-opacity:1;" d="M 2.578125 21.242188 L 7.371094 21.242188 L 7.371094 27.589844 L 2.578125 27.589844 Z M 2.578125 21.242188 "/>
<path style=" stroke:none;fill-rule:nonzero;fill:rgb(100%,66.27451%,0%);fill-opacity:1;" d="M 9.261719 14.496094 L 14.054688 14.496094 L 14.054688 27.589844 L 9.261719 27.589844 Z M 9.261719 14.496094 "/>
<path style=" stroke:none;fill-rule:nonzero;fill:rgb(87.058824%,1.568627%,9.411765%);fill-opacity:1;" d="M 22.628906 9.828125 L 27.421875 9.828125 L 27.421875 27.589844 L 22.628906 27.589844 Z M 22.628906 9.828125 "/>
<path style=" stroke:none;fill-rule:nonzero;fill:rgb(100%,39.607843%,21.176471%);fill-opacity:1;" d="M 15.945312 17.371094 L 20.738281 17.371094 L 20.738281 27.589844 L 15.945312 27.589844 Z M 15.945312 17.371094 "/>
<path style=" stroke:none;fill-rule:nonzero;fill:rgb(50.196078%,50.196078%,50.196078%);fill-opacity:1;" d="M 0 26.710938 L 30 26.710938 L 30 28.46875 L 0 28.46875 Z M 0 26.710938 "/>
<path style=" stroke:none;fill-rule:nonzero;fill:rgb(40%,40%,40%);fill-opacity:1;" d="M 15 26.710938 L 30 26.710938 L 30 28.46875 L 15 28.46875 Z M 15 26.710938 "/>
<path style=" stroke:none;fill-rule:nonzero;fill:rgb(20%,20%,20%);fill-opacity:1;" d="M 5.601562 15.910156 L 4.351562 14.671875 L 11.035156 7.925781 L 12.28125 9.164062 Z M 5.601562 15.910156 "/>
<path style=" stroke:none;fill-rule:nonzero;fill:rgb(20%,20%,20%);fill-opacity:1;" d="M 17.996094 12.226562 L 11.3125 9.351562 L 12.003906 7.738281 L 18.691406 10.613281 Z M 17.996094 12.226562 "/>
<path style=" stroke:none;fill-rule:nonzero;fill:rgb(20%,20%,20%);fill-opacity:1;" d="M 19 12.003906 L 17.683594 10.835938 L 24.367188 3.292969 L 25.683594 4.457031 Z M 19 12.003906 "/>
<path style=" stroke:none;fill-rule:nonzero;fill:rgb(90.196078%,90.196078%,90.196078%);fill-opacity:1;" d="M 7.320312 15.292969 C 7.320312 16.585938 6.269531 17.636719 4.976562 17.636719 C 3.679688 17.636719 2.632812 16.585938 2.632812 15.292969 C 2.632812 13.996094 3.679688 12.949219 4.976562 12.949219 C 6.269531 12.949219 7.320312 13.996094 7.320312 15.292969 Z M 7.320312 15.292969 "/>
<path style=" stroke:none;fill-rule:nonzero;fill:rgb(70.196078%,70.196078%,70.196078%);fill-opacity:1;" d="M 14.003906 8.546875 C 14.003906 9.839844 12.953125 10.890625 11.660156 10.890625 C 10.363281 10.890625 9.316406 9.839844 9.316406 8.546875 C 9.316406 7.25 10.363281 6.203125 11.660156 6.203125 C 12.953125 6.203125 14.003906 7.25 14.003906 8.546875 Z M 14.003906 8.546875 "/>
<path style=" stroke:none;fill-rule:nonzero;fill:rgb(30.196078%,30.196078%,30.196078%);fill-opacity:1;" d="M 27.367188 3.875 C 27.367188 5.171875 26.320312 6.21875 25.023438 6.21875 C 23.730469 6.21875 22.679688 5.171875 22.679688 3.875 C 22.679688 2.582031 23.730469 1.53125 25.023438 1.53125 C 26.320312 1.53125 27.367188 2.582031 27.367188 3.875 Z M 27.367188 3.875 "/>
<path style=" stroke:none;fill-rule:nonzero;fill:rgb(50.196078%,50.196078%,50.196078%);fill-opacity:1;" d="M 20.683594 11.417969 C 20.683594 12.714844 19.636719 13.761719 18.339844 13.761719 C 17.046875 13.761719 15.996094 12.714844 15.996094 11.417969 C 15.996094 10.125 17.046875 9.074219 18.339844 9.074219 C 19.636719 9.074219 20.683594 10.125 20.683594 11.417969 Z M 20.683594 11.417969 "/>
</g>
</svg>
